<?xml version="1.0" encoding="iso-8859-1"?>
<!-- Uploaded to: SVG Repo, www.svgrepo.com, Generator: SVG Repo Mixer Tools -->
<svg fill="#000000" height="800px" width="800px" version="1.1" id="Capa_1" xmlns="http://www.w3.org/2000/svg" xmlns:xlink="http://www.w3.org/1999/xlink" 
	 viewBox="0 0 433.227 433.227" xml:space="preserve">
<g>
	<path d="M433.139,170.238c0.393-1.193-0.672-8.622-0.672-8.622L416.824,79.2c-0.672-3.54-3.766-6.102-7.369-6.102h-76.519V49.293
		c0-4.142-3.358-7.5-7.5-7.5H107.78c-4.142,0-7.5,3.358-7.5,7.5v23.805H23.753c-3.603,0-6.697,2.562-7.369,6.102L0.931,160.616
		c0,0-1.253,8.454-0.851,9.656c0.988,15.654,11.649,28.722,26.064,33.272v180.389c0,2.316,1.07,4.502,2.899,5.923
		c1.33,1.033,2.952,1.577,4.601,1.577c0.619,0,1.242-0.077,1.855-0.233l61.27-15.643h239.682L397.72,391.2
		c0.613,0.156,1.236,0.233,1.855,0.233c1.649,0,3.271-0.544,4.601-1.577c1.829-1.42,2.899-3.607,2.899-5.923v-180.39
		C421.501,198.99,432.165,185.906,433.139,170.238z M115.28,56.793h202.658v48.175H115.28V56.793z M29.964,88.098h70.316v24.37
		c0,4.142,3.358,7.5,7.5,7.5h217.658c4.142,0,7.5-3.358,7.5-7.5v-24.37h70.308l13.722,72.298H16.241L29.964,88.098z M392.077,205.08
		v15.067l-47.182-10.52v-5.412c8.542-2.069,15.949-7.072,21.08-13.888C372.088,198.448,381.43,204.008,392.077,205.08z
		 M278.852,301.206h17.032v33.73h-17.032V301.206z M103.326,286.206v-11.168h226.569v11.168H103.326z M208.094,301.206h17.032v33.73
		h-17.032V301.206z M137.338,301.206h17.032v33.73h-17.032V301.206z M67.244,190.327c5.131,6.817,12.539,11.821,21.083,13.889v5.411
		l-47.182,10.52V205.08C51.79,204.007,61.131,198.447,67.244,190.327z M103.326,204.744c9.629-1.618,18.022-6.923,23.664-14.417
		c6.826,9.068,17.675,14.943,29.873,14.943s23.047-5.875,29.873-14.943c6.826,9.068,17.676,14.943,29.874,14.943
		s23.047-5.875,29.873-14.943c6.826,9.068,17.675,14.943,29.873,14.943s23.047-5.875,29.873-14.943
		c5.642,7.495,14.036,12.801,23.667,14.418v55.293h-226.57V204.744z M336.102,190.27c-9.707,0-17.986-6.215-21.076-14.874h42.152
		C354.088,184.054,345.809,190.27,336.102,190.27z M276.356,190.27c-9.707,0-17.986-6.215-21.076-14.874h42.152
		C294.341,184.054,286.062,190.27,276.356,190.27z M216.609,190.27c-9.707,0-17.986-6.215-21.076-14.874h42.152
		C234.595,184.054,226.316,190.27,216.609,190.27z M156.863,190.27c-9.707,0-17.986-6.215-21.076-14.874h42.152
		C174.849,184.054,166.569,190.27,156.863,190.27z M97.117,190.27c-9.707,0-17.986-6.215-21.076-14.874h42.152
		C115.102,184.054,106.823,190.27,97.117,190.27z M41.144,235.515l47.182-10.52v22.935l-47.182,10.521V235.515z M41.144,273.819
		l47.182-10.521v22.935l-47.182,10.521V273.819z M41.144,312.122l47.182-10.521v22.935l-47.182,10.52V312.122z M344.895,301.602
		l47.182,10.521v22.935l-47.182-10.52V301.602z M344.895,286.233v-22.935l47.182,10.521v22.935L344.895,286.233z M344.895,247.93
		v-22.935l47.182,10.52v22.935L344.895,247.93z M16.294,175.396h42.152c-3.09,8.658-11.37,14.874-21.076,14.874
		C27.664,190.27,19.385,184.054,16.294,175.396z M41.144,350.425l47.182-10.52v22.326l-47.182,12.046V350.425z M103.326,301.206
		h19.011v41.23c0,4.142,3.358,7.5,7.5,7.5h32.032c4.142,0,7.5-3.358,7.5-7.5v-41.23h23.725v41.23c0,4.142,3.358,7.5,7.5,7.5h32.032
		c4.142,0,7.5-3.358,7.5-7.5v-41.23h23.725v41.23c0,4.142,3.358,7.5,7.5,7.5h32.032c4.142,0,7.5-3.358,7.5-7.5v-41.23h19.011v59.351
		H103.326V301.206z M344.895,362.231v-22.326l47.182,10.52v23.852L344.895,362.231z M395.848,190.27
		c-9.707,0-17.986-6.215-21.076-14.874h42.152C413.834,184.054,405.555,190.27,395.848,190.27z"/>
</g>
</svg>