<?xml version="1.0" encoding="UTF-8" standalone="no"?>
<svg
   xmlns:dc="http://purl.org/dc/elements/1.1/"
   xmlns:cc="http://creativecommons.org/ns#"
   xmlns:rdf="http://www.w3.org/1999/02/22-rdf-syntax-ns#"
   xmlns:svg="http://www.w3.org/2000/svg"
   xmlns="http://www.w3.org/2000/svg"
   xmlns:sodipodi="http://sodipodi.sourceforge.net/DTD/sodipodi-0.dtd"
   xmlns:inkscape="http://www.inkscape.org/namespaces/inkscape"
   xml:space="preserve"
   style="shape-rendering:geometricPrecision;text-rendering:geometricPrecision;image-rendering:optimizeQuality;"
   viewBox="0 0 52.0441 115.8585"
   x="0px"
   y="0px"
   fill-rule="evenodd"
   clip-rule="evenodd"
   id="svg2"
   version="1.1"
   inkscape:version="0.91 r13725"
   sodipodi:docname="Q211584_noun_3705_ccSonerErtim_vending-machine.svg"><metadata
     id="metadata36"><rdf:RDF><cc:Work
         rdf:about=""><dc:format>image/svg+xml</dc:format><dc:type
           rdf:resource="http://purl.org/dc/dcmitype/StillImage" /><dc:title></dc:title></cc:Work></rdf:RDF></metadata><sodipodi:namedview
     pagecolor="#ffffff"
     bordercolor="#666666"
     borderopacity="1"
     objecttolerance="10"
     gridtolerance="10"
     guidetolerance="10"
     inkscape:pageopacity="0"
     inkscape:pageshadow="2"
     inkscape:window-width="1680"
     inkscape:window-height="988"
     id="namedview34"
     showgrid="false"
     inkscape:zoom="5.7614143"
     inkscape:cx="24.441802"
     inkscape:cy="59.867919"
     inkscape:window-x="-8"
     inkscape:window-y="-8"
     inkscape:window-maximized="1"
     inkscape:current-layer="svg2" /><defs
     id="defs4"><style
       type="text/css"
       id="style6">
   
    .fil1 {fill:none}
    .fil0 {fill:black}
    .fil2 {fill:black;fill-rule:nonzero}
   
  </style></defs><g
     id="g8"
     transform="translate(0,12)"><path
       class="fil0"
       d="m 0,0 52.0441,0 0,88.1989 0,4.48788 -3.51697,0 0,-4.48788 -45.0102,0 0,4.48788 -3.51697,0 0,-4.48788 L -4e-5,0 Z m 10.5936,72.0776 23.6041,0 0,11.7451 -23.6041,0 0,-11.7451 z m 37.0228,-45.0091 0.599844,0 c 0.143393,0 0.261611,0.117123 0.261611,0.260516 l 0,0.600938 c 0,0.143393 -0.118217,0.260516 -0.261611,0.260516 l -0.599844,0 c -0.143393,0 -0.261611,-0.117123 -0.261611,-0.260516 l 0,-0.600938 c 0,-0.143393 0.118217,-0.260516 0.261611,-0.260516 z m -1.7853,0 0.600938,0 c 0.143393,0 0.260516,0.117123 0.260516,0.260516 l 0,0.600938 c 0,0.143393 -0.117123,0.260516 -0.260516,0.260516 l -0.600938,0 c -0.143393,0 -0.260516,-0.117123 -0.260516,-0.260516 l 0,-0.600938 c 0,-0.143393 0.117123,-0.260516 0.260516,-0.260516 z m -1.71196,0 0.599844,0 c 0.143393,0 0.261611,0.117123 0.261611,0.260516 l 0,0.600938 c 0,0.143393 -0.118217,0.260516 -0.261611,0.260516 l -0.599844,0 c -0.144488,0 -0.261611,-0.117123 -0.261611,-0.260516 l 0,-0.600938 c 0,-0.143393 0.117123,-0.260516 0.261611,-0.260516 z m 3.49726,-1.5828 0.599844,0 c 0.143393,0 0.261611,0.117123 0.261611,0.260516 l 0,0.600938 c 0,0.143393 -0.118217,0.260516 -0.261611,0.260516 l -0.599844,0 c -0.143393,0 -0.261611,-0.117123 -0.261611,-0.260516 l 0,-0.600938 c 0,-0.143393 0.118217,-0.260516 0.261611,-0.260516 z m -1.7853,0 0.600938,0 c 0.143393,0 0.260516,0.117123 0.260516,0.260516 l 0,0.600938 c 0,0.143393 -0.117123,0.260516 -0.260516,0.260516 l -0.600938,0 c -0.143393,0 -0.260516,-0.117123 -0.260516,-0.260516 l 0,-0.600938 c 0,-0.143393 0.117123,-0.260516 0.260516,-0.260516 z m -1.71196,0 0.599844,0 c 0.143393,0 0.261611,0.117123 0.261611,0.260516 l 0,0.600938 c 0,0.143393 -0.118217,0.260516 -0.261611,0.260516 l -0.599844,0 c -0.144488,0 -0.261611,-0.117123 -0.261611,-0.260516 l 0,-0.600938 c 0,-0.143393 0.117123,-0.260516 0.261611,-0.260516 z m 3.49726,-1.55543 0.599844,0 c 0.143393,0 0.261611,0.118217 0.261611,0.261611 l 0,0.599844 c 0,0.143393 -0.118217,0.261611 -0.261611,0.261611 l -0.599844,0 c -0.143393,0 -0.261611,-0.118217 -0.261611,-0.261611 l 0,-0.599844 c 0,-0.143393 0.118217,-0.261611 0.261611,-0.261611 z m -1.7853,0 0.600938,0 c 0.143393,0 0.260516,0.118217 0.260516,0.261611 l 0,0.599844 c 0,0.143393 -0.117123,0.261611 -0.260516,0.261611 l -0.600938,0 c -0.143393,0 -0.260516,-0.118217 -0.260516,-0.261611 l 0,-0.599844 c 0,-0.143393 0.117123,-0.261611 0.260516,-0.261611 z m -1.71196,0 0.599844,0 c 0.143393,0 0.261611,0.118217 0.261611,0.261611 l 0,0.599844 c 0,0.143393 -0.118217,0.261611 -0.261611,0.261611 l -0.599844,0 c -0.144488,0 -0.261611,-0.118217 -0.261611,-0.261611 l 0,-0.599844 c 0,-0.143393 0.117123,-0.261611 0.261611,-0.261611 z m 3.49726,-1.62658 0.599844,0 c 0.143393,0 0.261611,0.118217 0.261611,0.261611 l 0,0.599844 c 0,0.144488 -0.118217,0.261611 -0.261611,0.261611 l -0.599844,0 c -0.143393,0 -0.261611,-0.117123 -0.261611,-0.261611 l 0,-0.599844 c 0,-0.143393 0.118217,-0.261611 0.261611,-0.261611 z m -1.7853,0 0.600938,0 c 0.143393,0 0.260516,0.118217 0.260516,0.261611 l 0,0.599844 c 0,0.144488 -0.117123,0.261611 -0.260516,0.261611 l -0.600938,0 c -0.143393,0 -0.260516,-0.117123 -0.260516,-0.261611 l 0,-0.599844 c 0,-0.143393 0.117123,-0.261611 0.260516,-0.261611 z m -1.71196,0 0.599844,0 c 0.143393,0 0.261611,0.118217 0.261611,0.261611 l 0,0.599844 c 0,0.144488 -0.118217,0.261611 -0.261611,0.261611 l -0.599844,0 c -0.144488,0 -0.261611,-0.117123 -0.261611,-0.261611 l 0,-0.599844 c 0,-0.143393 0.117123,-0.261611 0.261611,-0.261611 z m -0.800156,-2.55809 0.385301,0 c 0.02955,0 0.05254,0.02408 0.05254,0.05254 l 0,1.39234 c 0,0.02846 -0.02299,0.05254 -0.05254,0.05254 l -0.385301,0 c -0.02846,0 -0.05254,-0.02408 -0.05254,-0.05254 l 0,-1.39234 c 0,-0.02846 0.02408,-0.05254 0.05254,-0.05254 z m 1.06505,0.374355 4.27115,0 c 0.02846,0 0.05254,0.02408 0.05254,0.05254 l 0,0.585614 c 0,0.02955 -0.02408,0.05254 -0.05254,0.05254 l -4.27115,0 c -0.02846,0 -0.05254,-0.02299 -0.05254,-0.05254 l 0,-0.585614 c 0,-0.02846 0.02408,-0.05254 0.05254,-0.05254 z m 0.240813,15.1833 3.33088,0 c 0.286787,0 0.522127,0.234246 0.522127,0.522127 l 0,3.33088 c 0,0.286787 -0.23534,0.522127 -0.522127,0.522127 l -3.33088,0 c -0.287881,0 -0.522127,-0.23534 -0.522127,-0.522127 l 0,-3.33088 c 0,-0.287881 0.234246,-0.522127 0.522127,-0.522127 z m 0,-5.64269 3.33088,0 c 0.286787,0 0.522127,0.23534 0.522127,0.522127 l 0,3.33088 c 0,0.287881 -0.23534,0.523221 -0.522127,0.523221 l -3.33088,0 c -0.287881,0 -0.522127,-0.23534 -0.522127,-0.523221 l 0,-3.33088 c 0,-0.286787 0.234246,-0.522127 0.522127,-0.522127 z m -40.2453,-21.37 36.0355,0 0,61.2541 -36.0355,0 0,-61.2541 z"
       id="path10"
       inkscape:connector-curvature="0"
       style="fill:#000000" /><line
       class="fil1"
       x1="28.0996"
       y1="59.1371"
       x2="28.0996"
       y2="65.8153"
       id="line12"
       style="fill:none" /><line
       class="fil1"
       x1="16.4694"
       y1="59.1371"
       x2="16.4694"
       y2="65.8153"
       id="line14"
       style="fill:none" /><polygon
       class="fil0"
       points="36.5007,55.6125 8.17561,55.6125 8.17561,54.3066 36.5007,54.3066 "
       id="polygon16"
       style="fill:#000000" /><polygon
       class="fil0"
       points="36.5007,44.0984 8.17561,44.0984 8.17561,42.7925 36.5007,42.7925 "
       id="polygon18"
       style="fill:#000000" /><polygon
       class="fil0"
       points="36.5007,32.0851 8.17561,32.0851 8.17561,30.7803 36.5007,30.7803 "
       id="polygon20"
       style="fill:#000000" /><polygon
       class="fil0"
       points="36.5007,20.5709 8.17561,20.5709 8.17561,19.2661 36.5007,19.2661 "
       id="polygon22"
       style="fill:#000000" /><line
       class="fil1"
       x1="9.4420605"
       y1="19.918501"
       x2="37.7672"
       y2="19.918501"
       id="line24"
       style="fill:none" /><path
       class="fil1"
       d="m 28.0996,10.6625 0,6.67819 m -11.6302,-6.67819 0,6.67819 m 11.6302,28.44 0,6.67819 m -11.6302,-6.67819 0,6.67819 m 11.6302,-18.6532 0,6.67819 m -11.6302,-6.67819 0,6.67819 m 11.6302,-18.1923 0,6.67819 m -11.6302,-6.67819 0,6.67819"
       id="path26"
       inkscape:connector-curvature="0"
       style="fill:none" /><path
       class="fil2"
       d="m 28.4258,10.6625 0,6.67819 -0.653479,0 0,-6.67819 0.653479,0 z m -11.6302,0 0,6.67819 -0.652385,0 0,-6.67819 0.652385,0 z m 11.6302,35.1182 0,6.67819 -0.653479,0 0,-6.67819 0.653479,0 z m -11.6302,0 0,6.67819 -0.652385,0 0,-6.67819 0.652385,0 z m 11.6302,-11.975 0,6.67819 -0.653479,0 0,-6.67819 0.653479,0 z m -11.6302,0 0,6.67819 -0.652385,0 0,-6.67819 0.652385,0 z m 11.6302,-11.5142 0,6.67819 -0.653479,0 0,-6.67819 0.653479,0 z m -11.6302,0 0,6.67819 -0.652385,0 0,-6.67819 0.652385,0 z"
       id="path28"
       inkscape:connector-curvature="0"
       style="fill:#000000;fill-rule:nonzero" /></g></svg>